{"title":"Frankie And Alice 2011 XVID DVDSCR SAFCuk009+Fabreezy","uid":6113799,"size":1107897567,"categoryP":"video","categoryS":"movies","magnet":"?xt=urn:btih:418f90c726d088e8122dd2fd1c5928856943fcef&amp;dn=Frankie+And+Alice+2011+XVID+DVDSCR+SAFCuk009%2BFabreezy&amp;tr=udp%3A%2F%2Ftracker.openbittorrent.com%3A80&amp;tr=udp%3A%2F%2Fopen.demonii.com%3A1337&amp;tr=udp%3A%2F%2Ftracker.coppersurfer.tk%3A6969&amp;tr=udp%3A%2F%2Fexodus.desync.com%3A6969","seeders":1,"leechers":1,"uploader":"SAFCukO09","files":2,"time":1295465543,"description":"Format : AVI\nFormat/Info : Audio Video Interleave\nFile size : 1.03 GiB\nDuration : 1h 41mn\nOverall bit rate : 1 456 Kbps\nMovie name : A101122_00.Title1.DVDRip\nWriting application : VirtualDubMod 1.5.10.2 (build 2542/release)\nWriting library : VirtualDub build 32839/release\nOriginal source form/Name : A101122_00\n\nVideo\nID : 0\nFormat : MPEG-4 Visual\nFormat profile : Advanced Simple@L5\nFormat settings, BVOP : Yes\nFormat settings, QPel : No\nFormat settings, GMC : No warppoints\nFormat settings, Matrix : Custom\nCodec ID : XVID\nCodec ID/Hint : XviD\nDuration : 1h 41mn\nBit rate : 1 327 Kbps\nWidth : 720 pixels\nHeight : 306 pixels\nDisplay aspect ratio : 2.35:1\nFrame rate : 23.976 fps\nColor space : YUV\nChroma subsampling : 4:2:0\nBit depth : 8 bits\nScan type : Progressive\nBits/(Pixel*Frame) : 0.251\nStream size : 963 MiB (91%)\nWriting library : XviD 1.2.1 (UTC 2008-12-04)\n\nAudio\nID : 1\nFormat : MPEG Audio\nFormat version : Version 1\nFormat profile : Layer 3\nMode : Joint stereo\nCodec ID : 55\nCodec ID/Hint : MP3\nDuration : 1h 41mn\nBit rate mode : Variable\nBit rate : 117 Kbps\nChannel(s) : 2 channels\nSampling rate : 48.0 KHz\nStream size : 84.7 MiB (8%)\nAlignment : Aligned on interleaves\nInterleave, duration : 24 ms (0.58 video frame)\nInterleave, preload duration : 164 ms\n &lt;a href=&quot;\nhttp://www.imdb.com/title/tt1221208/&quot; rel=&quot;nofollow&quot; target=&quot;_NEW&quot;&gt;\nhttp://www.imdb.com/title/tt1221208/&lt;/a&gt;\n\n\nUsers: 6.6/10 (154 votes) 5 reviews | Critics: 1 reviews\n\nA drama centered on a young woman with multiple personality disorder who struggles to remain her true self and not give in to her racist alter-personality.\nDirector:\nGeoffrey Sax\nWriters:\nCheryl Edwards (screenplay), Marko King (screenplay), and 7 more credits Ã‚Â»\nStars:\nHalle Berry, Stellan SkarsgÃƒÂ¥rd and Phylicia Rashad\n","torrent":{"xt":"urn:btih:418f90c726d088e8122dd2fd1c5928856943fcef","amp;dn":"Frankie+And+Alice+2011+XVID+DVDSCR+SAFCuk009%2BFabreezy","amp;tr":["udp%3A%2F%2Ftracker.openbittorrent.com%3A80","udp%3A%2F%2Fopen.demonii.com%3A1337","udp%3A%2F%2Ftracker.coppersurfer.tk%3A6969","udp%3A%2F%2Fexodus.desync.com%3A6969"],"infoHash":"418f90c726d088e8122dd2fd1c5928856943fcef","infoHashBuffer":{"type":"Buffer","data":[65,143,144,199,38,208,136,232,18,45,210,253,28,89,40,133,105,67,252,239]},"announce":[],"urlList":[]}}